#!OML:ASF H:\Terrain\Patient Classification 1\Animal1\Tuesday\Animal1.ASF
:FULLY-SPECIFIED
:DEGREES
2140
root 10.8568 16.6209 -10.8982 18.2198 -0.592573 -0.173755
lowerback 0.79559 0.926526 -2.48405
upperback -6.79029 1.06605 -0.987529
thorax -7.56307 0.648151 0.275872
lowerneck -11.2404 2.71652 -4.73794
upperneck 26.015 2.66004 8.62586
head 9.86755 1.76027 4.16564
rclavicle -2.13694e-015 4.37326e-015
rhumerus -11.4529 15.9328 -67.0092
rradius 68.5513
rwrist 8.33078
rhand -44.1359 -649.839
rfingers 7.12502
rthumb -16.952 40.8813
lclavicle -2.13694e-015 4.37326e-015
lhumerus -4.14783 -18.8323 67.9918
lradius 84.4137
lwrist -48.1965
lhand -23.2534 57.4911
lfingers 7.12502
lthumb 3.19837 1527.45
rfemur -27.3346 28.2299 15.655
rtibia 21.025
rfoot -22.8928 -41.0522
rtoes 32.1915
lfemur -30.4252 -29.8829 -3.11352
ltibia 20.0507
lfoot -14.9533 27.2749
ltoes -3.23831
2141
root 10.8647 16.6271 -10.9154 18.4958 -0.674511 0.187333
lowerback 0.925831 0.857389 -2.89479
upperback -6.73228 0.942775 -1.084
thorax -7.58144 0.608722 0.411961
lowerneck -11.1757 2.77318 -4.80001
upperneck 25.962 2.72494 8.73296
head 9.82682 1.79487 4.2166
rclavicle 2.03754e-014 -1.27222e-014
rhumerus -11.4165 16.184 -67.002
rradius 68.2117
rwrist 9.11941
rhand -44.7396 -650.786
rfingers 7.12502
rthumb -17.5331 39.9842
lclavicle 2.03754e-014 -1.27222e-014
lhumerus -4.00244 -18.5496 68.0746
lradius 84.2915
lwrist -48.4096
lhand -23.5496 57.468
lfingers 7.12502
lthumb 2.91235 1527.43
rfemur -27.889 28.3813 14.9389
rtibia 21.2198
rfoot -23.0765 -41.177
rtoes 32.2985
lfemur -30.8238 -30.6185 -3.02852
ltibia 19.7661
lfoot -15.1687 27.9882
ltoes -2.41176
2142
root 10.8696 16.6299 -10.9313 18.5887 -0.700366 0.369296
lowerback 1.21802 0.867536 -3.07626
upperback -6.65083 0.93038 -1.18923
thorax -7.66626 0.609995 0.400128
lowerneck -11.177 2.68074 -5.02269
upperneck 26.1229 2.55119 9.05991
head 9.88721 1.72898 4.36114
rclavicle -1.15295e-014 1.59028e-015
rhumerus -11.4875 16.356 -66.9998
rradius 68.3166
rwrist 8.3835
rhand -45.2569 -650.092
rfingers 7.12502
rthumb -18.0309 40.7234
lclavicle -1.15295e-014 1.59028e-015
lhumerus -3.86511 -18.5885 68.0738
lradius 84.2621
lwrist -48.3986
lhand -23.3448 56.9723
lfingers 7.12502
lthumb 3.11009 1526.93
rfemur -28.2452 28.8341 14.4591
rtibia 21.417
rfoot -24.0554 -41.3617
rtoes 32.8339
lfemur -30.9697 -31.1424 -2.93324
ltibia 19.4756
lfoot -15.1114 28.5482
ltoes -1.91917
2143
root 10.8744 16.6329 -10.9414 18.6423 -0.68171 0.412588
lowerback 1.46831 0.912959 -3.05255
upperback -6.57224 0.977083 -1.30101
thorax -7.7264 0.62735 0.262698
lowerneck -11.3162 2.57416 -4.98778
upperneck 26.5029 2.3566 9.15035
head 10.0671 1.65401 4.38973
rclavicle -4.96962e-017 7.95139e-016
rhumerus -11.6721 16.2072 -67.083
rradius 68.0096
rwrist 8.4995
rhand -46.6236 -651.101
rfingers 7.12502
rthumb -19.3454 39.8411
lclavicle -4.96962e-017 7.95139e-016
lhumerus -3.8476 -18.8464 68.0123
lradius 84.3033
lwrist -48.3072
lhand -22.6519 56.379
lfingers 7.12502
lthumb 3.77927 1526.33
rfemur -28.3637 29.0159 14.284
rtibia 21.4581
rfoot -24.9146 -41.245
rtoes 33.6369
lfemur -31.0807 -31.4618 -2.79749
ltibia 19.3587
lfoot -14.8808 28.9176
ltoes -2.27004
2144
root 10.8774 16.6355 -10.9514 18.7992 -0.805183 0.317401
lowerback 1.58095 0.956446 -2.98887
upperback -6.53323 1.03308 -1.33651
thorax -7.74936 0.649562 0.183819
lowerneck -11.3328 2.56871 -4.77851
upperneck 26.6459 2.33307 9.00652
head 10.1314 1.64707 4.30664
rclavicle 1.45113e-014 -1.03368e-014
rhumerus -11.8498 15.9919 -67.2847
rradius 68.1482
rwrist 8.50709
rhand -44.7501 -651.206
rfingers 7.12502
rthumb -17.5431 39.5656
lclavicle 1.45113e-014 -1.03368e-014
lhumerus -3.92421 -18.8866 68.0112
lradius 84.3946
lwrist -48.3577
lhand -22.4433 56.5191
lfingers 7.12502
lthumb 3.98074 1526.46
rfemur -28.6026 29.2134 14.1678
rtibia 21.3794
rfoot -25.0786 -41.2133
rtoes 34.5431
lfemur -31.3225 -31.6606 -2.47908
ltibia 19.3754
lfoot -15.1706 29.2241
ltoes -1.5265
2145
root 10.881 16.6372 -10.963 18.9522 -0.988361 0.199405
lowerback 1.69061 0.984807 -2.95118
upperback -6.49045 1.07108 -1.317
thorax -7.76759 0.666353 0.178651
lowerneck -11.2593 2.53243 -4.67299
upperneck 26.5612 2.30929 8.81029
head 10.0944 1.62232 4.20903
rclavicle -7.70291e-015 1.11319e-014
rhumerus -11.9225 16.0007 -67.4261
rradius 68.3758
rwrist 8.3717
rhand -44.2376 -650.434
rfingers 7.12502
rthumb -17.0499 40.2938
lclavicle -7.70291e-015 1.11319e-014
lhumerus -3.9841 -18.7361 68.0056
lradius 84.4813
lwrist -48.4895
lhand -22.7029 56.7125
lfingers 7.12502
lthumb 3.72997 1526.66
rfemur -28.883 29.657 13.9731
rtibia 21.2662
rfoot -25.4874 -41.2224
rtoes 35.3232
lfemur -31.5901 -32.0199 -2.06107
ltibia 19.4302
lfoot -16.1989 29.4397
ltoes 1.99232
2146
root 10.8892 16.6405 -10.975 19.0399 -1.02632 0.0951246
lowerback 1.88535 0.979973 -2.81761
upperback -6.44117 1.06691 -1.29806
thorax -7.82486 0.656587 0.12137
lowerneck -11.0479 2.49386 -4.74372
upperneck 26.3127 2.27509 8.80137
head 9.96472 1.59498 4.19677
rclavicle -1.97294e-014 -3.57812e-015
rhumerus -11.8631 16.1094 -67.4439
rradius 68.4067
rwrist 8.10949
rhand -44.4156 -649.781
rfingers 7.12502
rthumb -17.2212 40.9623
lclavicle -1.97294e-014 -3.57812e-015
lhumerus -3.98977 -18.5974 67.9876
lradius 84.5661
lwrist -48.6432
lhand -22.9435 56.9909
lfingers 7.12502
lthumb 3.49769 1526.94
rfemur -29.0106 29.7922 13.9368
rtibia 21.1726
rfoot -25.3774 -41.3374
rtoes 35.3038
lfemur -31.8219 -32.4199 -1.68296
ltibia 19.4634
lfoot -17.0441 29.5555
ltoes 4.96334
